<?xml version="1.0" encoding="UTF-8"?>
<svg xmlns="http://www.w3.org/2000/svg" xmlns:xlink="http://www.w3.org/1999/xlink" width="50px" height="50px" viewBox="0 0 50 50" version="1.1">
<g id="surface1">
<path style=" stroke:none;fill-rule:nonzero;fill:rgb(0%,0%,0%);fill-opacity:1;" d="M 23.300781 0.28125 C 20.773438 0.472656 17.308594 1.265625 15.148438 2.15625 C 13.84375 2.707031 11.316406 4.109375 10.285156 4.875 C 8.382812 6.289062 6.523438 8.164062 4.863281 10.371094 C 4.050781 11.449219 2.132812 15.234375 1.65625 16.703125 C 1.316406 17.738281 0.761719 20.460938 0.53125 22.15625 C 0.433594 22.914062 0.394531 24.273438 0.449219 25.792969 C 0.585938 30.238281 1.535156 33.621094 3.761719 37.5 C 7.1875 43.453125 13.300781 47.871094 20.039062 49.246094 C 20.9375 49.433594 22.460938 49.648438 23.425781 49.730469 C 26.453125 50 30.273438 49.488281 33.355469 48.410156 C 35.027344 47.816406 38.097656 46.203125 39.59375 45.136719 C 44.550781 41.554688 48.125 35.9375 49.484375 29.566406 C 49.753906 28.273438 49.796875 27.695312 49.796875 25.054688 C 49.796875 23.234375 49.726562 21.699219 49.632812 21.214844 C 49.539062 20.769531 49.402344 20.015625 49.320312 19.53125 C 48.925781 17.375 47.335938 13.550781 45.855469 11.246094 C 44.253906 8.753906 41.644531 6.035156 39.511719 4.632812 C 38.96875 4.285156 38.355469 3.878906 38.136719 3.746094 C 37.269531 3.164062 34.742188 1.992188 33.425781 1.5625 C 31.601562 0.96875 29.035156 0.457031 27.039062 0.28125 C 25.339844 0.121094 25.3125 0.121094 23.300781 0.28125 Z M 27.253906 2.289062 C 30.71875 2.574219 34.183594 3.625 36.886719 5.226562 C 38.996094 6.480469 41.46875 8.660156 42.921875 10.558594 C 44.386719 12.488281 45.976562 15.476562 46.683594 17.632812 C 47.539062 20.257812 47.757812 21.671875 47.757812 24.785156 C 47.757812 27.84375 47.648438 28.664062 46.914062 31.183594 C 46.34375 33.148438 45.84375 34.363281 44.863281 36.140625 C 43.761719 38.1875 43.097656 39.117188 41.617188 40.707031 C 40.433594 41.984375 38.722656 43.507812 38.449219 43.507812 C 38.398438 43.507812 38.289062 43.15625 38.191406 42.726562 C 38.097656 42.308594 37.664062 40.71875 37.242188 39.195312 C 36.808594 37.675781 36.414062 36.273438 36.359375 36.070312 C 36.277344 35.734375 36.359375 35.65625 37.09375 35.15625 C 38.398438 34.28125 40.230469 32.113281 41.03125 30.507812 C 41.902344 28.746094 42.121094 27.894531 42.214844 25.863281 C 42.308594 23.71875 42.039062 22.007812 41.371094 20.488281 L 40.898438 19.410156 L 40.855469 16.539062 C 40.816406 13.980469 40.773438 13.539062 40.460938 12.390625 C 39.988281 10.65625 39.335938 9.039062 38.585938 7.824219 C 38.015625 6.882812 37.933594 6.800781 37.566406 6.84375 C 36.425781 6.964844 32.324219 9.429688 31.074219 10.75 L 30.691406 11.152344 L 30.054688 10.910156 C 27.621094 9.996094 22.878906 9.941406 20.339844 10.804688 L 19.550781 11.070312 L 18.84375 10.480469 C 17.648438 9.46875 14.933594 7.757812 13.816406 7.289062 C 12.308594 6.667969 12.1875 6.707031 11.46875 8.015625 C 10.054688 10.601562 9.523438 12.796875 9.414062 16.566406 C 9.347656 19.152344 9.347656 19.207031 8.886719 20.339844 C 8.152344 22.199219 7.976562 23.15625 7.960938 25.1875 C 7.949219 27.425781 8.179688 28.476562 9.117188 30.402344 C 9.933594 32.085938 11.046875 33.484375 12.648438 34.832031 C 13.316406 35.386719 13.859375 35.925781 13.859375 36.003906 C 13.859375 36.085938 13.613281 37.042969 13.328125 38.121094 C 13.042969 39.195312 12.609375 40.800781 12.378906 41.6875 C 12.132812 42.578125 11.886719 43.359375 11.835938 43.414062 C 11.523438 43.722656 8.246094 40.464844 6.765625 38.363281 C 5.300781 36.289062 4.496094 34.710938 3.695312 32.367188 C 2.867188 29.957031 2.609375 28.675781 2.445312 26.199219 C 2.242188 23.019531 2.691406 19.910156 3.804688 16.835938 C 5.3125 12.632812 8.371094 8.621094 11.957031 6.101562 C 13.65625 4.902344 14.945312 4.269531 17.324219 3.460938 C 20.570312 2.355469 23.574219 2.007812 27.253906 2.289062 Z M 19.550781 15.894531 C 19.90625 16.109375 20.351562 16.472656 20.570312 16.6875 C 20.949219 17.078125 20.949219 17.105469 20.734375 17.445312 C 20.597656 17.644531 20.449219 17.78125 20.378906 17.753906 C 20.3125 17.726562 19.824219 17.335938 19.308594 16.863281 C 18.449219 16.109375 18.371094 15.988281 18.519531 15.757812 C 18.738281 15.410156 18.816406 15.421875 19.550781 15.894531 Z M 31.683594 15.839844 C 31.835938 16.164062 31.820312 16.230469 31.507812 16.488281 C 31.304688 16.636719 30.855469 17.011719 30.503906 17.296875 L 29.863281 17.835938 L 29.605469 17.496094 C 29.46875 17.320312 29.347656 17.132812 29.347656 17.078125 C 29.347656 16.917969 31.140625 15.492188 31.34375 15.492188 C 31.441406 15.492188 31.601562 15.652344 31.683594 15.839844 Z M 20.066406 20.070312 C 20.882812 20.421875 21.671875 21.160156 22.078125 21.96875 C 22.390625 22.5625 22.960938 24.460938 22.960938 24.90625 C 22.976562 25.390625 23.152344 25.472656 23.722656 25.242188 C 24.335938 24.988281 26.523438 25.027344 26.792969 25.296875 C 27.066406 25.566406 27.148438 25.484375 27.242188 24.742188 C 27.390625 23.519531 27.976562 21.886719 28.464844 21.324219 C 29.101562 20.59375 30.246094 19.960938 31.222656 19.789062 C 32.253906 19.597656 33.164062 19.839844 34.265625 20.554688 C 35 21.039062 35.488281 21.714844 35.789062 22.710938 C 35.855469 22.925781 36.019531 23.019531 36.46875 23.074219 C 37.214844 23.179688 38.738281 23.789062 39.699219 24.367188 C 40.570312 24.890625 40.515625 24.621094 40.136719 26.964844 C 39.878906 28.542969 39.523438 29.417969 38.585938 30.832031 C 37.691406 32.164062 37.121094 32.71875 34.808594 34.441406 C 32.933594 35.855469 30.515625 37.109375 29.28125 37.3125 C 25.707031 37.902344 25.054688 37.917969 22.824219 37.511719 C 21.574219 37.285156 21.113281 37.148438 20.53125 36.839844 C 20.285156 36.71875 20.121094 36.679688 20.164062 36.757812 C 20.324219 37.015625 18.425781 36.261719 17.105469 35.535156 C 14.089844 33.875 12.023438 31.921875 10.816406 29.539062 C 10.285156 28.527344 10 27.398438 9.851562 25.78125 L 9.753906 24.8125 L 10.394531 24.378906 C 11.277344 23.773438 13.191406 23.035156 13.859375 23.035156 C 14.199219 23.035156 14.402344 22.964844 14.402344 22.859375 C 14.402344 22.050781 15.164062 20.90625 16.085938 20.339844 C 17.226562 19.652344 18.84375 19.53125 20.066406 20.070312 Z M 20.066406 20.070312 "/>
<path style=" stroke:none;fill-rule:nonzero;fill:rgb(0%,0%,0%);fill-opacity:1;" d="M 17.59375 21.457031 C 16.523438 21.875 15.898438 22.738281 15.898438 23.800781 C 15.898438 25.671875 17.664062 26.886719 19.320312 26.160156 C 21.316406 25.28125 21.34375 22.425781 19.363281 21.539062 C 18.75 21.253906 18.191406 21.226562 17.59375 21.457031 Z M 18.816406 22.425781 C 19.414062 23.019531 19.117188 23.839844 18.300781 23.839844 C 17.296875 23.839844 17.050781 22.589844 17.976562 22.226562 C 18.410156 22.050781 18.464844 22.0625 18.816406 22.425781 Z M 18.816406 22.425781 "/>
<path style=" stroke:none;fill-rule:nonzero;fill:rgb(0%,0%,0%);fill-opacity:1;" d="M 31.019531 21.429688 C 29.699219 21.808594 28.980469 23.625 29.605469 25 C 30.21875 26.347656 31.875 26.792969 33.136719 25.957031 C 34.101562 25.324219 34.539062 24.257812 34.253906 23.207031 C 33.871094 21.792969 32.445312 21.027344 31.019531 21.429688 Z M 32.445312 22.398438 C 32.554688 22.480469 32.609375 22.75 32.582031 23.085938 C 32.554688 23.546875 32.472656 23.667969 32.148438 23.828125 C 31.671875 24.042969 31.183594 23.867188 30.949219 23.371094 C 30.558594 22.507812 31.671875 21.78125 32.445312 22.398438 Z M 32.445312 22.398438 "/>
<path style=" stroke:none;fill-rule:nonzero;fill:rgb(0%,0%,0%);fill-opacity:1;" d="M 35.339844 26.601562 C 34.863281 26.777344 34.347656 27.046875 34.199219 27.195312 C 33.941406 27.4375 33.941406 27.476562 34.144531 27.800781 C 34.386719 28.164062 34.429688 28.164062 35.871094 27.722656 C 36.875 27.398438 37.09375 27.261719 37.09375 26.941406 C 37.09375 26.671875 36.671875 26.265625 36.398438 26.28125 C 36.289062 26.28125 35.816406 26.429688 35.339844 26.601562 Z M 35.339844 26.601562 "/>
<path style=" stroke:none;fill-rule:nonzero;fill:rgb(0%,0%,0%);fill-opacity:1;" d="M 13.492188 26.550781 C 13.234375 26.820312 13.273438 27.453125 13.558594 27.53125 C 13.683594 27.558594 14.226562 27.722656 14.769531 27.882812 C 15.898438 28.234375 16.167969 28.179688 16.167969 27.640625 C 16.167969 27.289062 16.074219 27.210938 15.351562 26.886719 C 14.347656 26.429688 13.710938 26.320312 13.492188 26.550781 Z M 13.492188 26.550781 "/>
<path style=" stroke:none;fill-rule:nonzero;fill:rgb(0%,0%,0%);fill-opacity:1;" d="M 23.710938 27.761719 C 22.703125 28.136719 22.351562 29 22.773438 30.023438 C 23.003906 30.601562 23.871094 31.382812 24.292969 31.382812 C 24.566406 31.382812 24.402344 32.179688 24.035156 32.53125 C 23.816406 32.757812 23.585938 32.800781 22.71875 32.800781 C 21.140625 32.785156 20.285156 32.261719 19.699219 30.941406 C 19.484375 30.457031 19.347656 30.308594 19.117188 30.308594 C 18.628906 30.308594 18.207031 30.683594 18.207031 31.101562 C 18.207031 31.855469 19.484375 33.351562 20.625 33.929688 C 21.929688 34.589844 23.980469 34.523438 24.808594 33.78125 C 25.066406 33.554688 25.109375 33.554688 25.273438 33.742188 C 25.515625 34.023438 26.765625 34.375 27.621094 34.375 C 29.0625 34.386719 30.21875 33.824219 31.277344 32.582031 C 31.984375 31.75 32.199219 31.382812 32.199219 30.992188 C 32.199219 30.65625 31.710938 30.308594 31.222656 30.308594 C 30.898438 30.308594 30.789062 30.402344 30.515625 31.007812 C 29.960938 32.234375 29.023438 32.867188 27.71875 32.867188 C 26.96875 32.867188 26.046875 32.488281 25.898438 32.125 C 25.71875 31.667969 25.816406 31.410156 26.238281 31.25 C 26.78125 31.019531 27.40625 30.359375 27.59375 29.796875 C 27.824219 29.109375 27.648438 28.488281 27.09375 28.070312 C 26.671875 27.746094 26.480469 27.707031 25.367188 27.667969 C 24.660156 27.640625 23.941406 27.679688 23.710938 27.761719 Z M 26.480469 28.273438 C 26.765625 28.449219 26.5625 29.027344 26.15625 29.203125 C 25.964844 29.296875 25.460938 29.363281 25.039062 29.363281 C 24.441406 29.363281 24.199219 29.296875 23.953125 29.066406 C 23.289062 28.449219 23.683594 28.164062 25.203125 28.152344 C 25.800781 28.152344 26.371094 28.207031 26.480469 28.273438 Z M 26.480469 28.273438 "/>
<path style=" stroke:none;fill-rule:nonzero;fill:rgb(0%,0%,0%);fill-opacity:1;" d="M 34.523438 28.917969 C 34.429688 29.109375 34.414062 29.324219 34.46875 29.378906 C 34.523438 29.429688 35.027344 29.554688 35.570312 29.632812 C 36.683594 29.808594 36.957031 29.714844 36.957031 29.148438 C 36.957031 28.730469 36.523438 28.554688 35.476562 28.554688 C 34.753906 28.554688 34.675781 28.582031 34.523438 28.917969 Z M 34.523438 28.917969 "/>
<path style=" stroke:none;fill-rule:nonzero;fill:rgb(0%,0%,0%);fill-opacity:1;" d="M 13.398438 28.894531 C 13.273438 29.015625 13.179688 29.1875 13.179688 29.285156 C 13.179688 29.675781 13.519531 29.753906 14.621094 29.660156 L 15.691406 29.566406 L 15.691406 28.757812 L 14.660156 28.71875 C 13.84375 28.691406 13.574219 28.730469 13.398438 28.894531 Z M 13.398438 28.894531 "/>
</g>
</svg>
